<svg aria-hidden="true" style="position: absolute; width: 0; height: 0; overflow: hidden;" version="1.1" xmlns="http://www.w3.org/2000/svg" xmlns:xlink="http://www.w3.org/1999/xlink">
<defs>
<symbol id="log-out" viewBox="0 0 24 24">
<path d="M9 20h-4c-0.276 0-0.525-0.111-0.707-0.293s-0.293-0.431-0.293-0.707v-14c0-0.276 0.111-0.525 0.293-0.707s0.431-0.293 0.707-0.293h4c0.552 0 1-0.448 1-1s-0.448-1-1-1h-4c-0.828 0-1.58 0.337-2.121 0.879s-0.879 1.293-0.879 2.121v14c0 0.828 0.337 1.58 0.879 2.121s1.293 0.879 2.121 0.879h4c0.552 0 1-0.448 1-1s-0.448-1-1-1zM18.586 11h-9.586c-0.552 0-1 0.448-1 1s0.448 1 1 1h9.586l-3.293 3.293c-0.391 0.391-0.391 1.024 0 1.414s1.024 0.391 1.414 0l5-5c0.092-0.092 0.166-0.202 0.217-0.324 0.15-0.362 0.078-0.795-0.217-1.090l-5-5c-0.391-0.391-1.024-0.391-1.414 0s-0.391 1.024 0 1.414z"></path>
</symbol>
<symbol id="book" viewBox="0 0 24 24">
<path stroke-linejoin="round" stroke-linecap="round" stroke-miterlimit="4" stroke-width="2.25" d="M22 6.2c0-1.119 0-1.68-0.219-2.108-0.195-0.378-0.495-0.679-0.862-0.869l-0.011-0.005c-0.429-0.218-0.989-0.218-2.109-0.218h-0.399c-2.241 0-3.36 0-4.216 0.435-0.753 0.384-1.365 0.996-1.748 1.749-0.437 0.855-0.437 1.975-0.437 4.215v11.601l0.101-0.15c0.694-1.043 1.041-1.563 1.5-1.939 0.407-0.335 0.874-0.585 1.379-0.738 0.567-0.172 1.194-0.172 2.445-0.172h1.376c1.12 0 1.68 0 2.109-0.218 0.375-0.192 0.681-0.498 0.873-0.875 0.219-0.427 0.219-0.988 0.219-2.107v-8.601zM1.999 6.2c0-1.119 0-1.68 0.219-2.108 0.191-0.375 0.497-0.683 0.873-0.875 0.428-0.218 0.989-0.218 2.109-0.218h0.399c2.241 0 3.36 0 4.215 0.435 0.755 0.384 1.365 0.996 1.749 1.749 0.435 0.855 0.435 1.976 0.435 4.215v11.601l-0.099-0.15c-0.694-1.043-1.041-1.563-1.5-1.939-0.389-0.322-0.848-0.574-1.35-0.73l-0.028-0.008c-0.568-0.172-1.194-0.172-2.445-0.172h-1.375c-1.12 0-1.68 0-2.109-0.218-0.378-0.196-0.678-0.496-0.868-0.863l-0.005-0.011c-0.219-0.427-0.219-0.988-0.219-2.107v-8.601z"></path>
</symbol>
<symbol id="chevron" viewBox="0 0 24 24">
<path stroke-linejoin="round" stroke-linecap="round" stroke-miterlimit="4" stroke-width="4" d="M2 7l10 10 10-10"></path>
</symbol>
<symbol id="favorite" viewBox="0 0 24 24">
<path stroke-linejoin="round" stroke-linecap="round" stroke-miterlimit="4" stroke-width="1.8462" d="M20.84 4.61c-0.995-0.996-2.371-1.612-3.89-1.612s-2.895 0.616-3.89 1.612l-1.060 1.061-1.060-1.061c-0.998-1.012-2.385-1.639-3.918-1.639-3.038 0-5.502 2.463-5.502 5.502 0 1.533 0.627 2.919 1.638 3.917l0.001 0.001 8.84 8.84 8.84-8.84c0.995-0.996 1.611-2.371 1.611-3.89s-0.616-2.894-1.611-3.89v0z"></path>
</symbol>
<symbol id="log-in" viewBox="0 0 24 24">
<path d="M15 4h4c0.276 0 0.525 0.111 0.707 0.293s0.293 0.431 0.293 0.707v14c0 0.276-0.111 0.525-0.293 0.707s-0.431 0.293-0.707 0.293h-4c-0.552 0-1 0.448-1 1s0.448 1 1 1h4c0.828 0 1.58-0.337 2.121-0.879s0.879-1.293 0.879-2.121v-14c0-0.828-0.337-1.58-0.879-2.121s-1.293-0.879-2.121-0.879h-4c-0.552 0-1 0.448-1 1s0.448 1 1 1zM12.586 11h-9.586c-0.552 0-1 0.448-1 1s0.448 1 1 1h9.586l-3.293 3.293c-0.391 0.391-0.391 1.024 0 1.414s1.024 0.391 1.414 0l5-5c0.096-0.096 0.168-0.206 0.217-0.324s0.076-0.247 0.076-0.383c0-0.13-0.025-0.261-0.076-0.383-0.049-0.118-0.121-0.228-0.217-0.324l-5-5c-0.391-0.391-1.024-0.391-1.414 0s-0.391 1.024 0 1.414z"></path>
</symbol>
<symbol id="online" viewBox="0 0 24 24">
<path fill="#fff" style="fill: var(--color1, #fff)" d="M24 12c0 6.627-5.373 12-12 12s-12-5.373-12-12c0-6.627 5.373-12 12-12s12 5.373 12 12z"></path>
<path fill="#38cd3e" style="fill: var(--color2, #38cd3e)" d="M20 12c0 4.418-3.582 8-8 8s-8-3.582-8-8c0-4.418 3.582-8 8-8s8 3.582 8 8z"></path>
</symbol>
<symbol id="star" viewBox="0 0 24 24">
<path fill="#ffc531" style="fill: var(--color3, #ffc531); stroke: var(--color3, #ffc531)" stroke="#ffc531" stroke-linejoin="miter" stroke-linecap="butt" stroke-miterlimit="4" stroke-width="1.8" d="M9.3 7.046l2.7-5.117 2.7 5.117c0.239 0.453 0.675 0.768 1.178 0.855l5.7 0.987-4.032 4.149c-0.289 0.297-0.467 0.703-0.467 1.15 0 0.083 0.006 0.164 0.018 0.244l-0.001-0.009 0.825 5.727-5.193-2.553c-0.212-0.107-0.463-0.169-0.727-0.169s-0.515 0.062-0.737 0.173l0.010-0.004-5.193 2.553 0.825-5.727c0.011-0.070 0.017-0.152 0.017-0.235 0-0.447-0.178-0.853-0.467-1.15l0 0-4.034-4.149 5.7-0.986c0.515-0.091 0.94-0.411 1.175-0.848l0.004-0.009z"></path>
</symbol>
</defs>
</svg>
